<svg width="49" height="49" fill="none" xmlns="http://www.w3.org/2000/svg"><path d="M21.774 18.395v12.23M4.084 13.169V41.21l13.617-5.38 13.598 5.38 13.618-5.38V7.79l-13.618 5.38L17.7 7.789l-13.618 5.38Zm17.69 17.456h6.115-6.115Zm0-12.23h6.115-6.115Zm0 6.115h3.992-3.992Z" stroke="#E6DF80" stroke-linecap="round" stroke-linejoin="round"/><path d="M18.375 22.458a4.083 4.083 0 0 0-4.318-4.083 4.257 4.257 0 0 0-3.849 4.338v3.829a4.083 4.083 0 0 0 8.167 0h-4.083l4.083-4.084Zm20.417 0a4.084 4.084 0 0 0-4.329-4.083 4.257 4.257 0 0 0-3.838 4.338v3.829a4.083 4.083 0 0 0 8.167 0v-4.084Z" stroke="#E6DF80" stroke-linecap="round" stroke-linejoin="round"/></svg>