<svg width="49" height="49" viewBox="0 0 49 49" fill="none" xmlns="http://www.w3.org/2000/svg">
<path d="M21.7743 18.3954V30.625M4.08325 13.1688V41.2111L17.7012 35.8313L31.2987 41.2111L44.9166 35.8313V7.78897L31.2987 13.1688L17.7012 7.78897L4.08325 13.1688ZM21.7743 30.625H27.8891H21.7743ZM21.7743 18.3954H27.8891H21.7743ZM21.7743 24.5102H25.7658H21.7743Z" stroke="#E6DF80" stroke-linecap="round" stroke-linejoin="round"/>
<path d="M18.3749 22.4583C18.3758 21.9018 18.263 21.3509 18.0432 20.8395C17.8235 20.3281 17.5015 19.8671 17.0971 19.4847C16.6927 19.1023 16.2144 18.8066 15.6916 18.6158C15.1688 18.4249 14.6124 18.343 14.0568 18.375C12.9857 18.4779 11.9934 18.9826 11.2794 19.7875C10.5654 20.5924 10.1827 21.6379 10.2082 22.7135V26.5417C10.2082 27.6246 10.6384 28.6632 11.4042 29.429C12.17 30.1948 13.2086 30.625 14.2916 30.625C15.3745 30.625 16.4131 30.1948 17.1789 29.429C17.9447 28.6632 18.3749 27.6246 18.3749 26.5417H14.2916L18.3749 22.4583ZM38.7916 22.4583C38.7926 21.9009 38.6794 21.3491 38.4591 20.837C38.2387 20.3249 37.9158 19.8633 37.5103 19.4808C37.1048 19.0982 36.6252 18.8028 36.1012 18.6126C35.5772 18.4224 35.0197 18.3416 34.4632 18.375C33.394 18.4803 32.4042 18.986 31.6923 19.7907C30.9804 20.5954 30.5991 21.6395 30.6249 22.7135V26.5417C30.6249 27.6246 31.0551 28.6632 31.8209 29.429C32.5867 30.1948 33.6253 30.625 34.7082 30.625C35.7912 30.625 36.8298 30.1948 37.5956 29.429C38.3614 28.6632 38.7916 27.6246 38.7916 26.5417V22.4583Z" stroke="#E6DF80" stroke-linecap="round" stroke-linejoin="round"/>
</svg>
